<svg xmlns="http://www.w3.org/2000/svg" xmlns:xlink="http://www.w3.org/1999/xlink" width="1000" zoomAndPan="magnify" viewBox="0 0 750 225" height="300" preserveAspectRatio="xMidYMid meet" version="1.0"><defs><clipPath id="26df7b8d22"><path d="M 4.128906 16.171875 L 745.878906 16.171875 L 745.878906 208.921875 L 4.128906 208.921875 Z M 4.128906 16.171875 " clip-rule="nonzero"/></clipPath><clipPath id="efba0f976f"><path d="M 404 16.171875 L 745.878906 16.171875 L 745.878906 208.921875 L 404 208.921875 Z M 404 16.171875 " clip-rule="nonzero"/></clipPath><clipPath id="6c9498ec64"><path d="M 632 33 L 745.878906 33 L 745.878906 208.921875 L 632 208.921875 Z M 632 33 " clip-rule="nonzero"/></clipPath><clipPath id="07d48819e3"><path d="M 679 52 L 745.878906 52 L 745.878906 208.921875 L 679 208.921875 Z M 679 52 " clip-rule="nonzero"/></clipPath><clipPath id="a25ee07d22"><path d="M 718 87 L 745.878906 87 L 745.878906 208.921875 L 718 208.921875 Z M 718 87 " clip-rule="nonzero"/></clipPath></defs><g clip-path="url(#26df7b8d22)"><path fill="#111013" d="M 745.53125 31.386719 L 745.53125 193.285156 C 745.53125 201.683594 738.714844 208.5 730.316406 208.5 L 19.363281 208.5 C 10.96875 208.5 4.152344 201.683594 4.152344 193.285156 L 4.152344 31.386719 C 4.152344 22.988281 10.96875 16.171875 19.363281 16.171875 L 730.316406 16.171875 C 738.714844 16.171875 745.53125 22.988281 745.53125 31.386719 Z M 745.53125 31.386719 " fill-opacity="1" fill-rule="evenodd"/></g><g clip-path="url(#efba0f976f)"><path fill="#ffffff" d="M 730.800781 16.511719 C 731.109375 16.488281 731.089844 16.242188 733.796875 16.355469 C 734.597656 16.390625 735.140625 16.460938 735.253906 16.476562 C 736.25 16.605469 736.226562 16.386719 736.851562 16.269531 C 737.492188 16.148438 739.292969 16.738281 739.496094 16.804688 C 740.847656 17.542969 740.804688 17.585938 741.878906 18.6875 C 743.65625 20.507812 744.328125 20.882812 745.214844 22.523438 C 745.566406 23.59375 745.667969 23.554688 745.734375 24.472656 C 745.816406 25.636719 745.351562 25.609375 745.507812 26.769531 C 745.703125 28.21875 745.636719 30.851562 745.628906 33.332031 C 744.917969 33.71875 744.257812 33.195312 742.878906 36.660156 C 742.835938 36.734375 742.589844 36.953125 742.34375 37.582031 C 741.84375 38.867188 740.828125 40.355469 737.769531 45.867188 C 732.386719 55.570312 725.914062 65.464844 724.265625 68.113281 C 721.816406 72.042969 710.894531 88.234375 710.644531 88.554688 C 707.183594 93 686.300781 125.175781 648.617188 165.933594 C 630.257812 185.789062 612.261719 202.449219 608.492188 205.667969 C 607.117188 206.839844 607.144531 206.84375 606.058594 208.304688 C 605.839844 208.339844 605.660156 208.523438 605.4375 208.558594 C 604.78125 208.667969 577.265625 208.558594 574.816406 208.550781 C 573.015625 208.542969 573.058594 208.285156 572.632812 208.242188 C 572.40625 208.21875 572.183594 208.359375 571.957031 208.335938 C 574.019531 206.359375 574.082031 206.460938 576.324219 204.699219 C 587.539062 195.863281 587.578125 195.929688 599.285156 186.222656 C 614.011719 174.007812 631.558594 157.628906 636.367188 152.9375 C 664.753906 125.261719 683.898438 103.320312 703.894531 77.507812 C 710.359375 69.160156 710.195312 69.046875 710.765625 68.328125 C 713.683594 64.667969 719.714844 55.832031 720.164062 55.222656 C 725.265625 48.269531 728.625 42.878906 729.613281 41.429688 C 739.117188 27.449219 740.894531 24.5 741.238281 23.996094 C 742.304688 22.425781 743.550781 21.808594 741.765625 21.175781 C 741.304688 21.011719 741.371094 21.277344 740.761719 22.070312 C 738.371094 25.171875 738.542969 25.28125 736.160156 28.40625 C 730.980469 35.210938 730.910156 35.148438 730.46875 35.75 C 726.585938 41.039062 725.0625 42.335938 723.949219 43.757812 C 718.648438 50.53125 706.277344 64.386719 700.835938 70.070312 C 696.390625 74.710938 696.503906 74.800781 692.066406 79.449219 C 689.976562 81.640625 677.058594 94.460938 672.324219 98.90625 C 654.722656 115.441406 648.175781 120.769531 639.226562 128.179688 C 611.441406 151.175781 589.519531 165.375 587.730469 166.660156 C 581.808594 170.914062 565.140625 181.113281 563.839844 181.980469 C 561.199219 183.738281 561.164062 183.664062 545.972656 192.605469 C 537.535156 197.574219 517.976562 207.617188 517.648438 207.863281 C 517.535156 207.945312 517.574219 208.148438 517.464844 208.230469 C 516.203125 208.527344 516.214844 208.542969 516.101562 208.550781 C 515.675781 208.574219 419.863281 208.550781 411.496094 208.550781 C 408.214844 208.550781 408.238281 208.367188 404.957031 208.199219 C 406.308594 207.578125 406.242188 207.375 413.011719 205.578125 C 425.332031 202.304688 447.933594 194.957031 457.871094 191.335938 C 464.898438 188.773438 464.859375 188.695312 471.875 186.113281 C 478.796875 183.566406 478.703125 183.382812 485.566406 180.753906 C 509.789062 171.476562 544.914062 153.847656 547.84375 152.15625 C 550.523438 150.609375 577.113281 137.261719 608.746094 116.523438 C 610.351562 115.472656 621.796875 107.972656 628.636719 103.164062 C 630.546875 101.824219 630.488281 101.769531 632.398438 100.425781 C 639.832031 95.199219 639.734375 95.082031 640.386719 94.632812 C 645.476562 91.140625 645.3125 90.929688 648.34375 88.78125 C 656.015625 83.34375 676.78125 66.445312 677.226562 66.058594 C 677.660156 65.671875 691.78125 53.683594 693.265625 52.34375 C 705.90625 40.914062 705.9375 40.964844 707.011719 39.949219 C 730.417969 17.851562 730.101562 17.519531 730.800781 16.511719 Z M 730.800781 16.511719 " fill-opacity="1" fill-rule="evenodd"/></g><g clip-path="url(#6c9498ec64)"><path fill="#ffffff" d="M 745.628906 33.332031 C 745.585938 36.597656 745.691406 41.523438 745.621094 52.929688 C 745.304688 53.226562 744.84375 53.347656 744.527344 53.644531 C 743.890625 54.242188 742.960938 57.421875 742.863281 57.761719 C 737.726562 71.066406 737.433594 70.925781 734.632812 77.65625 C 731.601562 84.9375 726.4375 95.300781 725.878906 96.511719 C 721.386719 106.3125 710.535156 126.554688 708.574219 129.96875 C 708.25 130.53125 706.433594 133.699219 704.601562 137.039062 C 700.820312 143.933594 689.511719 163.007812 679.496094 177.867188 C 678.078125 179.972656 677.738281 181.078125 662.496094 202.34375 C 659.007812 207.207031 658.929688 207.15625 658.347656 208.332031 C 658.109375 208.363281 657.898438 208.507812 657.660156 208.539062 C 657.589844 208.550781 652.160156 208.550781 646.675781 208.550781 C 635.273438 208.550781 635.285156 208.578125 632.90625 208.285156 C 633.527344 207.117188 633.488281 207.109375 634.386719 206.121094 C 647.539062 191.582031 668.585938 164.414062 673.460938 157.394531 C 676.222656 153.417969 683.183594 144.566406 697.714844 122.019531 C 704.214844 111.9375 707.222656 106.742188 708.003906 105.390625 C 709.140625 103.425781 711.566406 99.753906 714.660156 94.15625 C 720.003906 84.484375 720.203125 84.617188 725.3125 74.824219 C 725.828125 73.835938 728.71875 68.292969 731.835938 62.476562 C 732.695312 60.875 732.476562 60.773438 741.886719 42.089844 C 743.980469 37.933594 744.175781 37.800781 744.140625 37.742188 C 743.871094 37.257812 743.152344 37.144531 742.878906 36.660156 C 744.257812 33.195312 744.917969 33.71875 745.628906 33.332031 Z M 745.628906 33.332031 " fill-opacity="1" fill-rule="evenodd"/></g><g clip-path="url(#07d48819e3)"><path fill="#ffffff" d="M 745.621094 52.929688 C 745.589844 63.070312 745.722656 72.808594 745.582031 80.507812 C 745.335938 80.773438 744.375 80.992188 744.015625 82.703125 C 743.953125 82.992188 743.597656 84.679688 743.230469 86.3125 C 740.828125 96.972656 735.761719 112 734.695312 115.40625 C 727.332031 138.992188 717.21875 163.449219 715.519531 167.558594 C 710.492188 179.71875 710.347656 179.652344 709.910156 180.707031 C 706.742188 188.398438 699.296875 203.769531 697.542969 207.554688 C 697.355469 207.851562 697.640625 207.921875 697.453125 208.21875 C 697.425781 208.261719 697.277344 208.496094 696.910156 208.554688 C 696.382812 208.632812 695.84375 208.550781 695.308594 208.550781 C 695.085938 208.550781 680.945312 208.550781 680.792969 208.546875 C 679.78125 208.53125 679.5 208.273438 679.328125 208.238281 C 679.558594 207.425781 679.460938 207.40625 679.894531 206.703125 C 680.480469 205.753906 681.875 203.488281 686.816406 194.582031 C 692.703125 183.976562 698.804688 171.851562 699.808594 169.855469 C 702.238281 165.023438 716.054688 137.574219 727.171875 108.054688 C 736.890625 82.25 739.058594 73.285156 743.769531 60.132812 C 744.21875 58.875 744.28125 58.886719 744.238281 58.777344 C 743.914062 57.925781 743.191406 58.628906 742.863281 57.761719 C 742.960938 57.421875 743.890625 54.242188 744.527344 53.644531 C 744.84375 53.347656 745.304688 53.226562 745.621094 52.929688 Z M 745.621094 52.929688 " fill-opacity="1" fill-rule="evenodd"/></g><g clip-path="url(#a25ee07d22)"><path fill="#ffffff" d="M 745.40625 87.761719 C 745.449219 88.808594 745.761719 96.703125 745.644531 100.839844 C 745.53125 104.84375 745.410156 104.820312 745.359375 108.808594 C 745.261719 109.09375 744.960938 109 744.78125 110.996094 C 744.542969 113.652344 744.582031 113.65625 744.535156 113.882812 C 744.484375 114.152344 744.296875 114.378906 744.238281 114.648438 C 744 115.824219 743.496094 121.320312 743.441406 121.898438 C 742.832031 128.558594 739.351562 151.949219 738.960938 154.554688 C 735.480469 177.941406 728.5625 207.433594 728.558594 207.496094 C 728.546875 207.78125 728.773438 208.039062 728.761719 208.324219 C 728.410156 208.359375 728.464844 208.511719 728.101562 208.550781 C 728.085938 208.550781 728.09375 208.550781 726.523438 208.550781 C 725.507812 208.550781 719.351562 208.550781 719.277344 208.542969 C 719.039062 208.519531 718.828125 208.363281 718.59375 208.339844 C 718.613281 208.039062 718.335938 207.769531 718.355469 207.46875 C 718.421875 206.488281 720.914062 200.390625 724.898438 185.703125 C 725.078125 185.039062 727.0625 178.667969 729.808594 167.527344 C 732.925781 154.871094 733.078125 154.921875 735.667969 142.144531 C 738.386719 128.75 738.644531 128.8125 740.71875 115.296875 C 741.144531 112.53125 741.695312 110.238281 743.242188 98.652344 C 743.582031 96.105469 743.558594 96.121094 743.914062 93.5625 C 744.191406 91.589844 744.191406 91.589844 744.230469 91.421875 C 744.300781 91.152344 744.503906 90.925781 744.574219 90.65625 C 744.691406 90.1875 744.722656 89.699219 744.796875 89.222656 C 744.980469 88.066406 745.234375 88.179688 745.40625 87.761719 Z M 745.40625 87.761719 " fill-opacity="1" fill-rule="evenodd"/></g><path fill="#ffffff" d="M 61.097656 123.886719 C 61.363281 123.71875 61.523438 123.476562 61.570312 123.152344 C 61.621094 122.800781 61.714844 122.460938 61.859375 122.132812 C 68.539062 107.160156 75.140625 92.234375 81.660156 77.355469 C 83.492188 73.167969 91.148438 75.289062 88.949219 80.121094 C 80.730469 98.242188 72.710938 115.957031 64.886719 133.269531 C 63.671875 135.957031 61.625 136.671875 58.746094 135.410156 C 58.164062 135.15625 57.535156 134.296875 56.863281 132.835938 C 49.875 117.527344 42.683594 101.722656 35.292969 85.417969 C 34.019531 82.609375 30.230469 75.960938 35.910156 75.207031 C 39.769531 74.695312 40.300781 76.976562 41.695312 80.195312 C 47.914062 94.554688 54.195312 109.0625 60.539062 123.71875 C 60.65625 123.988281 60.84375 124.042969 61.097656 123.886719 Z M 61.097656 123.886719 " fill-opacity="1" fill-rule="nonzero"/><path fill="#ffffff" d="M 109.308594 76.773438 L 109.308594 134.378906 C 109.308594 135.269531 108.589844 135.988281 107.703125 135.988281 L 102.5625 135.988281 C 101.675781 135.988281 100.953125 135.269531 100.953125 134.378906 L 100.953125 76.773438 C 100.953125 75.882812 101.675781 75.164062 102.5625 75.164062 L 107.703125 75.164062 C 108.589844 75.164062 109.308594 75.882812 109.308594 76.773438 Z M 109.308594 76.773438 " fill-opacity="1" fill-rule="evenodd"/><path fill="#ffffff" d="M 137.914062 92.019531 C 140.015625 87.238281 141.960938 82.410156 144.15625 77.65625 C 145.699219 74.328125 150.449219 74.15625 151.996094 77.730469 C 159.371094 94.777344 166.859375 111.917969 174.453125 129.144531 C 175.445312 131.390625 175.894531 133.679688 173.582031 135.234375 C 170.960938 137 167.933594 135.6875 166.828125 132.980469 C 165.492188 129.695312 164.175781 126.5 162.886719 123.394531 C 162.695312 122.941406 162.234375 122.644531 161.726562 122.644531 L 133.917969 122.652344 C 133.71875 122.652344 133.578125 122.742188 133.496094 122.917969 C 131.871094 126.632812 130.371094 130.148438 129 133.457031 C 127.480469 137.125 122.402344 136.746094 121.039062 133.078125 C 120.496094 131.601562 121.082031 130.707031 121.664062 129.359375 C 127.0625 116.792969 132.476562 104.347656 137.914062 92.019531 Z M 136.675781 115.355469 C 136.65625 115.402344 136.648438 115.457031 136.648438 115.507812 C 136.648438 115.738281 136.84375 115.929688 137.082031 115.933594 L 159.09375 115.976562 C 159.097656 115.976562 159.097656 115.976562 159.097656 115.976562 C 159.339844 115.976562 159.539062 115.785156 159.539062 115.554688 C 159.539062 115.496094 159.53125 115.441406 159.507812 115.390625 L 148.550781 89.269531 C 148.484375 89.105469 148.320312 88.996094 148.136719 88.996094 C 147.957031 88.996094 147.792969 89.101562 147.726562 89.261719 Z M 136.675781 115.355469 " fill-opacity="1" fill-rule="nonzero"/><path fill="#ffffff" d="M 195.355469 127.816406 C 205.074219 127.777344 214.609375 127.777344 223.964844 127.816406 C 229.878906 127.847656 229.867188 136.035156 223.980469 136.035156 C 213.574219 136.035156 202.417969 136.03125 190.511719 136.027344 C 188.300781 136.027344 186.484375 134.277344 186.484375 132.152344 C 186.46875 114.039062 186.488281 96.265625 186.539062 78.832031 C 186.546875 75.582031 190.265625 74.371094 192.929688 75.71875 C 194.8125 76.679688 194.886719 79.042969 194.886719 80.847656 C 194.875 96.582031 194.867188 112.082031 194.875 127.355469 C 194.875 127.664062 195.035156 127.816406 195.355469 127.816406 Z M 195.355469 127.816406 " fill-opacity="1" fill-rule="nonzero"/><path fill="#ffffff" d="M 252.839844 83.101562 C 252.820312 98.132812 252.832031 114.46875 252.871094 132.109375 C 252.878906 136.222656 247.082031 137.347656 244.894531 134.015625 C 244.59375 133.554688 244.445312 133.082031 244.445312 132.59375 C 244.445312 116.09375 244.398438 99.609375 244.308594 83.144531 C 244.308594 82.871094 244.074219 82.644531 243.789062 82.644531 C 243.785156 82.644531 243.785156 82.644531 243.78125 82.644531 C 237.925781 82.6875 232.246094 82.683594 226.746094 82.628906 C 221.621094 82.578125 221.585938 75.179688 227.082031 75.171875 C 240.707031 75.152344 255.125 75.152344 270.339844 75.171875 C 275.433594 75.179688 275.632812 82.535156 270.25 82.617188 C 264.636719 82.699219 259.007812 82.691406 253.367188 82.59375 C 253.015625 82.589844 252.839844 82.757812 252.839844 83.101562 Z M 252.839844 83.101562 " fill-opacity="1" fill-rule="nonzero"/><path fill="#ffffff" d="M 294.429688 128.53125 C 304.738281 128.507812 315.277344 128.503906 326.042969 128.515625 C 332.082031 128.523438 331.601562 136.003906 326.210938 136.019531 C 313.734375 136.046875 301.613281 136.046875 289.847656 136.011719 C 285.339844 136.003906 285.261719 132.394531 285.292969 128.851562 C 285.453125 112.953125 285.476562 96.625 285.371094 79.863281 C 285.347656 76.75 286.847656 75.183594 289.867188 75.171875 C 303.714844 75.105469 315.933594 75.117188 326.523438 75.199219 C 328.714844 75.214844 329.953125 76.234375 330.246094 78.265625 C 330.726562 81.617188 328.527344 82.6875 325.617188 82.683594 C 315.347656 82.667969 305.765625 82.667969 296.867188 82.6875 C 295.964844 82.6875 295.101562 82.625 294.285156 82.492188 C 294.273438 82.488281 294.261719 82.488281 294.253906 82.488281 C 294.042969 82.472656 293.859375 82.628906 293.84375 82.832031 C 293.84375 82.839844 293.839844 82.847656 293.839844 82.859375 L 293.847656 100.851562 C 293.847656 101.289062 294.074219 101.503906 294.527344 101.503906 C 300.839844 101.496094 307.945312 101.5 315.839844 101.519531 C 317.5625 101.523438 318.761719 101.707031 319.433594 102.0625 C 321.839844 103.347656 321.933594 107.257812 319.402344 108.53125 C 318.695312 108.890625 317.925781 109.0625 317.089844 109.054688 C 309.34375 109.007812 301.714844 109.015625 294.199219 109.066406 C 294 109.066406 293.832031 109.222656 293.832031 109.414062 L 293.839844 127.964844 C 293.839844 128.339844 294.039062 128.53125 294.429688 128.53125 Z M 294.429688 128.53125 " fill-opacity="1" fill-rule="nonzero"/><path fill="#ffffff" d="M 352.5625 113.082031 C 352.5625 118.332031 352.570312 124.671875 352.578125 132.101562 C 352.578125 137.273438 344.039062 137.421875 344.03125 131.726562 C 344.027344 113.238281 344.039062 95.855469 344.070312 79.578125 C 344.074219 76.679688 345.546875 75.214844 348.484375 75.183594 C 354.523438 75.117188 359.863281 75.136719 364.503906 75.242188 C 374.5625 75.480469 382.765625 82.460938 383.5 92.421875 C 384.105469 100.621094 380.75 106.609375 373.433594 110.394531 C 373.0625 110.585938 372.988281 110.855469 373.210938 111.203125 C 377.035156 117.089844 380.804688 122.917969 384.519531 128.691406 C 385.414062 130.074219 385.894531 131.152344 385.953125 131.925781 C 386.089844 133.695312 385.132812 135.410156 383.230469 135.863281 C 380.914062 136.421875 379.160156 135.609375 377.964844 133.730469 C 373.648438 127.003906 369.226562 120.140625 364.703125 113.132812 C 364.472656 112.773438 364.0625 112.550781 363.621094 112.550781 L 353.105469 112.550781 C 352.746094 112.550781 352.5625 112.730469 352.5625 113.082031 Z M 352.617188 82.867188 L 352.496094 104.785156 C 352.496094 104.925781 352.617188 105.039062 352.761719 105.039062 L 363.214844 105.09375 C 369.898438 105.125 375.425781 100.175781 375.460938 94.125 L 375.460938 93.757812 C 375.492188 87.707031 370.019531 82.699219 363.339844 82.667969 L 352.882812 82.609375 C 352.738281 82.609375 352.617188 82.726562 352.617188 82.867188 Z M 352.617188 82.867188 " fill-opacity="1" fill-rule="nonzero"/><path fill="#ffffff" d="M 405.78125 90.0625 C 405.671875 90.199219 405.621094 90.351562 405.621094 90.523438 C 405.625 104.832031 405.621094 118.742188 405.605469 132.253906 C 405.605469 134.539062 403.242188 136.289062 401.015625 135.980469 C 398.433594 135.625 397.140625 134.09375 397.140625 131.382812 C 397.125 115.8125 397.121094 98.527344 397.125 79.535156 C 397.125 75.074219 402.257812 73.503906 405.078125 77.121094 C 417.277344 92.757812 428.589844 107.226562 439.011719 120.535156 C 439.570312 121.253906 439.851562 121.164062 439.851562 120.269531 C 439.863281 107.164062 439.871094 93.4375 439.863281 79.085938 C 439.863281 74.011719 448.269531 73.703125 448.269531 78.917969 C 448.242188 97.582031 448.230469 115.421875 448.238281 132.445312 C 448.246094 135.226562 444.972656 136.621094 442.511719 135.703125 C 440.886719 135.09375 440.011719 133.5625 438.972656 132.242188 C 427.972656 118.171875 416.988281 104.113281 406.015625 90.0625 C 405.988281 90.023438 405.945312 90.003906 405.898438 90.003906 C 405.851562 90.003906 405.808594 90.023438 405.78125 90.0625 Z M 405.78125 90.0625 " fill-opacity="1" fill-rule="nonzero"/><path fill="#ffffff" d="M 501.644531 123.175781 C 501.515625 122.859375 501.199219 122.648438 500.84375 122.644531 L 472.898438 122.652344 C 472.628906 122.652344 472.4375 122.773438 472.324219 123.011719 C 470.90625 126.15625 469.523438 129.398438 468.175781 132.738281 C 465.738281 138.800781 457.625 135.726562 460.347656 129.5625 C 467.785156 112.742188 474.988281 96.171875 481.957031 79.859375 C 482.394531 78.835938 482.898438 77.855469 483.464844 76.917969 C 484.992188 74.371094 489.445312 74.554688 490.65625 77.328125 C 498.5625 95.351562 506.152344 112.769531 513.433594 129.578125 C 516.171875 135.902344 508.082031 138.402344 505.960938 133.480469 C 504.480469 130.039062 503.042969 126.601562 501.644531 123.175781 Z M 475.503906 115.382812 C 475.484375 115.433594 475.472656 115.484375 475.472656 115.539062 C 475.472656 115.757812 475.664062 115.941406 475.894531 115.941406 L 498.007812 115.976562 C 498.238281 115.976562 498.425781 115.796875 498.425781 115.574219 C 498.425781 115.523438 498.414062 115.476562 498.398438 115.429688 L 487.386719 89.246094 C 487.320312 89.09375 487.167969 88.996094 486.996094 88.996094 C 486.824219 88.996094 486.671875 89.09375 486.609375 89.246094 Z M 475.503906 115.382812 " fill-opacity="1" fill-rule="nonzero"/></svg>